<svg xmlns="http://www.w3.org/2000/svg">
    <symbol id="calendar" viewBox="0 0 26 26">
      <path id="calendar_copy" data-name="calendar copy" class="cls-1" d="M659 410a1 1 0 0 1-1-1v-4a1 1 0 0 1 1-1 1 1 0 0 1 1 1v4a1 1 0 0 1-1 1zm13-1v-4a1 1 0 0 0-1-1 1 1 0 0 0-1 1v4a1 1 0 0 0 1 1 1 1 0 0 0 1-1zm6 .083v17.833a3.083 3.083 0 0 1-3.084 3.084h-19.833a3.082 3.082 0 0 1-3.083-3.085v-17.833a3.083 3.083 0 0 1 3.083-3.082H656v3a3 3 0 0 0 6 0v-3h6v3a3 3 0 0 0 6 0v-3h.916a3.084 3.084 0 0 1 3.084 3.082zM676 414h-22v12h22v-12zm-18 2h-2v2h2v-2zm0 4h-2v2h2v-2zm4-4h-2v2h2v-2zm0 4h-2v2h2v-2zm4-4h-2v2h2v-2zm0 4h-2v2h2v-2zm4-4h-2v2h2v-2zm4 0h-2v2h2v-2zm-4 4h-2v2h2v-2z" transform="translate(-652 -404)"/>
    </symbol>
    <symbol id="login" viewBox="0 0 11.72 15">
      <path class="cls-1" d="M5.86 6.918c1.66 0 3.01-1.652 3.01-3.691a3.017 3.017 0 1 0-6.02 0c0 2.038 1.35 3.691 3.01 3.691zm5.84 5.216c-.29-2.679-2.76-3.631-5.76-3.631H5.77c-2.99 0-5.46.952-5.75 3.631-.01.069-.01.655-.02.972a9.384 9.384 0 0 0 5.86 1.9 9.6 9.6 0 0 0 5.86-1.9c-.01-.317-.01-.906-.02-.972z"/>
    </symbol>
    <symbol id="search" viewBox="0 0 18 18">
      <path id="Shape_11_copy" data-name="Shape 11 copy" class="cls-1" d="M1254.16 415.913a6.92 6.92 0 1 1 6.92 6.977 6.933 6.933 0 0 1-6.92-6.977zm2.03 0a4.89 4.89 0 1 0 4.89-4.942 4.9 4.9 0 0 0-4.89 4.942zM1251.43 427l4.38-4.367-1.43-1.442-4.38 4.367z" transform="translate(-1250 -409)"/>
    </symbol>
    <symbol id="sort-down" viewBox="0 0 10 5">
      <path class="cls-1" d="M9.991 0L5 4.991.009 0h9.982z"/>
    </symbol>
    <symbol id="swap" viewBox="0 0 29.812 15.906">
      <path id="inactive" class="cls-1" d="M949.972 303.048h13.506l-2.286 2.277a1 1 0 0 0 0 1.413 1.008 1.008 0 0 0 1.411 0l3.976-3.978a1 1 0 0 0 0-1.413l-3.976-3.978a1 1 0 0 0-1.411 1.413l2.286 2.277h-13.506a.995.995 0 0 0 0 1.989zm-8.656 9.657a1.009 1.009 0 0 0 1.412 0 1 1 0 0 0 0-1.413l-2.286-2.277h13.506a.995.995 0 0 0 0-1.989h-13.506l2.286-2.278a1 1 0 0 0-1.412-1.412l-3.975 3.979a1 1 0 0 0 0 1.412z" transform="translate(-937.063 -297.094)"/><path id="hover" class="cls-2" d="M949.972 303.048h13.506l-2.286 2.277a1 1 0 0 0 0 1.413 1.008 1.008 0 0 0 1.411 0l3.976-3.978a1 1 0 0 0 0-1.413l-3.976-3.978a1 1 0 0 0-1.411 1.413l2.286 2.277h-13.506a.995.995 0 0 0 0 1.989zm-8.656 9.657a1.009 1.009 0 0 0 1.412 0 1 1 0 0 0 0-1.413l-2.286-2.277h13.506a.995.995 0 0 0 0-1.989h-13.506l2.286-2.278a1 1 0 0 0-1.412-1.412l-3.975 3.979a1 1 0 0 0 0 1.412z" transform="translate(-937.063 -297.094)"/>
    </symbol></svg>