<svg xmlns="http://www.w3.org/2000/svg" width="26" height="26" viewBox="0 0 26 26">
  <metadata><?xpacket begin="﻿" id="W5M0MpCehiHzreSzNTczkc9d"?>
<x:xmpmeta xmlns:x="adobe:ns:meta/" x:xmptk="Adobe XMP Core 5.6-c138 79.159824, 2016/09/14-01:09:01        ">
   <rdf:RDF xmlns:rdf="http://www.w3.org/1999/02/22-rdf-syntax-ns#">
      <rdf:Description rdf:about=""/>
   </rdf:RDF>
</x:xmpmeta>
                                                                                                    
                                                                                                    
                                                                                                    
                                                                                                    
                                                                                                    
                                                                                                    
                                                                                                    
                                                                                                    
                                                                                                    
                                                                                                    
                                                                                                    
                                                                                                    
                                                                                                    
                                                                                                    
                                                                                                    
                                                                                                    
                                                                                                    
                                                                                                    
                                                                                                    
                                                                                                    
                           
<?xpacket end="w"?></metadata>
<defs>
    <style>
      .cls-1 {
        fill: #656565;
        fill-rule: evenodd;
      }
    </style>
  </defs>
  <path id="calendar_copy" data-name="calendar copy" class="cls-1" d="M659,410h0a1,1,0,0,1-1-1v-4a1,1,0,0,1,1-1h0a1,1,0,0,1,1,1v4A1,1,0,0,1,659,410Zm13-1v-4a1,1,0,0,0-1-1h0a1,1,0,0,0-1,1v4a1,1,0,0,0,1,1h0A1,1,0,0,0,672,409Zm6,0.083v17.833A3.083,3.083,0,0,1,674.916,430H655.083A3.082,3.082,0,0,1,652,426.915V409.082A3.083,3.083,0,0,1,655.083,406H656v3a3,3,0,0,0,6,0v-3h6v3a3,3,0,0,0,6,0v-3h0.916A3.084,3.084,0,0,1,678,409.082ZM676,414H654v12h22V414Zm-18,2h-2v2h2v-2Zm0,4h-2v2h2v-2Zm4-4h-2v2h2v-2Zm0,4h-2v2h2v-2Zm4-4h-2v2h2v-2Zm0,4h-2v2h2v-2Zm4-4h-2v2h2v-2Zm4,0h-2v2h2v-2Zm-4,4h-2v2h2v-2Z" transform="translate(-652 -404)"/>
</svg>
