<svg id="swap" xmlns="http://www.w3.org/2000/svg" width="29.812" height="15.906" viewBox="0 0 29.812 15.906">
  <metadata><?xpacket begin="﻿" id="W5M0MpCehiHzreSzNTczkc9d"?>
<x:xmpmeta xmlns:x="adobe:ns:meta/" x:xmptk="Adobe XMP Core 5.6-c138 79.159824, 2016/09/14-01:09:01        ">
   <rdf:RDF xmlns:rdf="http://www.w3.org/1999/02/22-rdf-syntax-ns#">
      <rdf:Description rdf:about=""/>
   </rdf:RDF>
</x:xmpmeta>
                                                                                                    
                                                                                                    
                                                                                                    
                                                                                                    
                                                                                                    
                                                                                                    
                                                                                                    
                                                                                                    
                                                                                                    
                                                                                                    
                                                                                                    
                                                                                                    
                                                                                                    
                                                                                                    
                                                                                                    
                                                                                                    
                                                                                                    
                                                                                                    
                                                                                                    
                                                                                                    
                           
<?xpacket end="w"?></metadata>
<defs>
    <style>
      .cls-1 {
        fill: #94c4db;
      }

      .cls-1, .cls-2 {
        fill-rule: evenodd;
      }

      .cls-2 {
        fill: #fff;
      }
    </style>
  </defs>
  <path id="inactive" class="cls-1" d="M949.972,303.048h13.506l-2.286,2.277a1,1,0,0,0,0,1.413,1.008,1.008,0,0,0,1.411,0l3.976-3.978a1,1,0,0,0,0-1.413l-3.976-3.978a1,1,0,0,0-1.411,1.413l2.286,2.277H949.972A0.995,0.995,0,0,0,949.972,303.048Zm-8.656,9.657a1.009,1.009,0,0,0,1.412,0,1,1,0,0,0,0-1.413l-2.286-2.277h13.506a0.995,0.995,0,0,0,0-1.989H940.442l2.286-2.278a1,1,0,0,0-1.412-1.412l-3.975,3.979a1,1,0,0,0,0,1.412Z" transform="translate(-937.063 -297.094)"/>
  <path id="hover" class="cls-2" d="M949.972,303.048h13.506l-2.286,2.277a1,1,0,0,0,0,1.413,1.008,1.008,0,0,0,1.411,0l3.976-3.978a1,1,0,0,0,0-1.413l-3.976-3.978a1,1,0,0,0-1.411,1.413l2.286,2.277H949.972A0.995,0.995,0,0,0,949.972,303.048Zm-8.656,9.657a1.009,1.009,0,0,0,1.412,0,1,1,0,0,0,0-1.413l-2.286-2.277h13.506a0.995,0.995,0,0,0,0-1.989H940.442l2.286-2.278a1,1,0,0,0-1.412-1.412l-3.975,3.979a1,1,0,0,0,0,1.412Z" transform="translate(-937.063 -297.094)"/>
</svg>
